#tb 0: 1/25
#media_type 0: video
#codec_id 0: rawvideo
#dimensions 0: 1920x1080
#sar 0: 0/1
0,          0,          0,        1,  6220800, 0x147dc2d1
0,          1,          1,        1,  6220800, 0x7bcafc1a
0,          2,          2,        1,  6220800, 0xd482e0e7
0,          3,          3,        1,  6220800, 0xe0880e0a
0,          4,          4,        1,  6220800, 0x29494294
0,          5,          5,        1,  6220800, 0x92354ffb
0,          6,          6,        1,  6220800, 0x3b937f8a
0,          7,          7,        1,  6220800, 0x345e8e4b
0,          8,          8,        1,  6220800, 0x55e4d6f5
